Patient4_TMGait_0pt2_03_left_16_EMG.mot
version=1
nRows=40
nColumns=33
inDegrees=no
endheader
time	1LAddLong	2LGlutMax	3LGlutMed	4LIliopsoas	5LSemiMemb	6LBicFemLong	7LRecFem	8LVastMed	9LVastLat	10LGasMed	11LTibAnt	12lTibPost	13LPeroneusLong	14LSol	15LExtDigLong	16LFlexDigLong	17RAddLong	18RGlutMax	19RGlutMed	20RIliopsoas	21RSemiMemb	22RBicFemLong	23RRecFem	24RVastMed	25RVastLat	26RGasMed	27RTibAnt	28RTibPost	29RPeroneusLong	30RSol	31RExtDigLong	32RFlexDigLong
34.805	0.00351	0.066986	0.15442	0.005035	0.014954	-0.00885	0.084381	0.005341	0.008698	0.17258	-0.010376	0.013885	0.038147	-0.097809	-0.020599	-0.00473	-0.009155	0.088348	1.0555	-0.094604	0.15167	-0.013123	0.17349	0.22293	-0.017853	-0.009003	0.006104	-0.003815	0.016327	-0.015717	0.000763	-0.006714
34.806	0.009613	0.067444	0.16373	0.008392	0.002594	0.001526	0.075989	0.002441	0.013123	0.16876	0.006256	0.02243	-0.094757	-0.11871	-0.02533	-0.008392	-0.003662	0.087585	0.10178	-0.15945	0.11093	-0.016479	0.088654	0.20599	0.000153	-0.011444	0.016632	-0.006714	0.018768	-0.009003	-0.002289	-0.016785
34.807	0.01297	0.036774	0.071564	0.012054	0.007629	0.007629	0.051422	0.004272	0.011597	0.094757	0.002289	0.015564	-0.001526	-0.002899	-0.001984	0.002441	-0.006256	0.031281	0.29617	-0.1976	0.1648	-0.026245	0.041046	0.062561	0.013885	-0.013123	0.017548	-0.003967	0.005951	-0.028839	-0.00061	-0.001526
34.808	0.018921	0.080109	0.036621	0.002136	0.007324	0.009308	0.030975	0.00946	0.007019	0.079346	-0.014648	0.00885	0.23102	0.12558	-0.007019	0.020447	0.010834	-0.033264	0.16571	-0.20447	0.15747	-0.052032	0.15091	-0.016327	0.024414	-0.009918	0.040131	-0.002747	-0.041046	-0.069122	-0.002594	-0.011139
34.809	-0.013275	0.06958	0.076294	0.014496	0.005188	0.002899	0.066681	0.004425	-0.007019	0.088501	-0.006104	0.009308	0.040436	0.2327	-0.016174	-0.001678	0.024414	-0.068512	0.50522	-0.1857	0.1297	-0.04837	0.21744	-0.10788	-0.000916	-0.005798	0.032501	-0.002899	-0.030975	-0.002441	0.000916	-0.006409
34.81	0.024872	0.045166	0.07782	-0.004578	-0.001221	-0.009308	0.050812	0.006409	-0.012207	0.070953	-0.009308	0.015259	0.075989	0.060577	-0.018311	-0.002747	0.01709	-0.049286	1.0808	-0.17014	0.13657	-0.037231	0.20126	-0.1503	0.009308	-0.006714	0.021362	-0.00412	0.021973	0.001221	-0.001831	-0.006256
34.811	-0.032043	0.015106	0.058441	-0.00351	0.001984	0.00351	0.024872	0	0.012817	0.01297	-0.007935	0.005493	0.15533	0.038605	0.00061	0.002594	0.018768	-0.096741	0.72388	-0.009613	0.13031	-0.053253	0.18127	-0.15182	0.079193	-0.006714	0.014343	-0.00885	0.002747	-0.020599	-0.000916	-0.011139
34.812	-0.011444	0.014191	0.008087	0.002594	0.010681	0.003967	0.004425	0.000458	0.029907	0.034485	-0.001984	0.00885	0.18539	0.054474	0.019073	-0.000763	0.027771	-0.036316	-0.52978	-0.083618	0.1294	-0.059204	0.26627	-0.16678	0.09964	-0.005341	0.034943	-0.005646	-0.038147	-0.036316	-0.001526	-0.011139
34.813	0.016327	0.007782	-0.037537	0.007782	0.00885	0.023193	0.027466	0.003815	0.023193	0.089111	-0.002441	0.006409	0.11887	0.074463	0.003357	-0.008087	0.028229	0.037537	-2.2226	-0.001678	0.11078	-0.065613	0.24139	-0.17258	0.099335	-0.005341	0.010071	-0.003357	-0.00412	-0.04303	-0.006104	-0.007324
34.814	0.006409	0.010986	-0.032806	0.005188	0.014343	0.045471	0.063629	0.000153	0.023193	0.085754	-0.023804	0.006409	-0.271	0.020294	-0.016022	0.003967	0.036774	0.094147	-2.2757	-0.077515	0.13229	-0.042725	-0.041199	-0.11581	0.07019	-0.000763	0.048218	-0.001678	-0.049133	-0.047607	-0.002136	-0.007629
34.815	0.001221	0.006104	0.007782	0.00824	0.01709	0.055542	0.073547	-0.003052	0.021667	0.057831	-0.043335	0.008698	-0.1564	-0.048218	-0.009308	0.005341	0.018158	0.12711	0.037689	-0.11963	0.1181	0.001831	-0.19577	-0.11231	0.019836	-0.001373	0.042877	-0.002136	-0.055389	-0.063629	0.001373	-0.013428
34.816	0.003815	0.001831	0.048065	0.006714	0.005951	0.066223	0.070648	-0.004883	0.024414	0.036469	-0.021667	0.01297	0.02182	-0.04303	0.001526	0.007324	0.014954	0.039063	0.59998	0.15076	0.10727	-0.02121	-0.041809	-0.084991	-0.010681	-0.005188	0.037079	-0.00824	-0.036469	-0.029755	-0.000916	-0.015106
34.817	0.011902	-0.019989	0.063019	0.020752	-0.016327	0.029602	0.05722	0.000916	0.028076	0.033722	0.027618	0.009308	-0.13153	0.007935	-0.032349	0.005493	0.031128	-0.098419	0.1741	0.36514	0.12512	-0.050354	0.079651	0.063019	-0.002441	-0.000153	-0.001984	-0.00412	0.050659	0.032959	-0.00061	-0.017242
34.818	0.002441	0.000458	0.05249	0.018616	-0.022583	0.036774	0.083618	0.001221	0.028839	0.01709	0.02533	0.010529	-0.11597	0.088196	0.011292	-0.000763	0.045624	-0.073242	1.0309	0.19119	0.12131	-0.044403	0.038452	0.11597	0.013733	-0.00473	0.041351	-0.006714	-0.019226	-0.014801	0.000153	-0.013275
34.819	-0.008698	-0.01709	0.005798	0.020142	-0.072937	0.037994	0.085449	0.000763	0.015259	0.002136	0.006866	0.006256	-0.029449	0.094452	0.00885	-0.001068	0.046234	-0.10162	0.47546	0.10437	0.089111	-0.063171	0.093384	0.13351	0.013123	0.002747	0.00473	-0.009155	0.03891	-0.002899	-0.002594	-0.009613
34.82	-0.02182	-0.021515	-0.032959	0.005188	-0.12909	0.074005	0.083923	0.007324	0.000916	0.00351	0.016327	0.007019	0.045776	0.10727	0.002899	-0.004272	0.037842	-0.084534	0.20447	-0.09552	0.066681	-0.072632	0.11459	0.13245	0.031128	-0.005341	-0.029907	-0.002594	0.039673	-0.01358	-0.005951	-0.003967
34.821	-0.010223	0.005188	-0.06897	0.004578	-0.21835	-0.007172	0.10147	0.007935	0.001831	0.005188	0.016479	0.009155	-0.0383	0.055389	-0.037842	-0.010223	0.019836	0.014038	0.29709	-0.20279	-0.007935	-0.063171	0.12604	0.098419	0.086517	-0.01297	0.004425	-0.00412	-0.037689	0.007019	-0.002289	-0.015717
34.822	0.019836	0.016022	-0.055389	-0.003662	-0.076904	-0.065765	0.0737	0.001373	0.020905	0.00824	0.024109	0.007019	-0.023804	-0.013428	-0.032043	0.00473	0.013123	0.012054	0.049744	-0.16068	0.06073	-0.036163	0.10315	0.074158	0.16663	-0.007324	0.045013	-0.003357	-0.072784	-0.034485	0.001526	-0.011139
34.823	0.030975	0.044861	0.008087	0.009155	0.13336	-0.018921	0.094604	0.000916	0.007629	0.037384	0.006866	0.011902	-0.023651	0.009918	-0.028687	0.001984	0.01297	0.057678	0.24689	-0.11581	0.10452	-0.032043	0.093079	0.12711	0.20447	-0.007172	0.029755	-0.007172	-0.040894	-0.010681	-0.000458	-0.00885
34.824	0.016479	-0.025482	0.022736	0.017242	0.12497	0.016327	0.12024	0.003815	-0.001984	0.059814	0.002747	0.001984	0.051422	0.050812	-0.012207	0.002289	0.007782	0.008087	1.0216	-0.20996	-0.014648	-0.001526	0.17548	0.010223	0.21027	-0.001221	0.023041	-0.010834	-0.071106	0.005188	0.000763	-0.010223
34.825	0.012512	-0.02594	0.039063	0.00473	0.098572	0.036621	0.11002	-0.001678	0.007935	0.079803	0.002289	0.002747	0.096893	0.028381	-0.000305	-0.001984	-0.019226	-0.072174	0.61356	-0.20004	-0.001526	0.010529	0.22507	-0.035553	0.36163	0.00061	0.047455	-0.007477	-0.085907	-0.034485	-0.002899	-0.009308
34.826	0.018005	-0.048523	-0.005646	0.008087	0.044708	0.067444	0.13123	-0.003815	-0.007477	0.14221	0.000916	0.009308	0.021362	-0.036469	-0.001831	-0.00061	-0.026245	-0.057068	-0.013428	-0.18509	0.10941	0.005035	0.11887	-0.045319	0.40924	0.001221	0.042572	-0.008087	-0.059357	-0.10788	-0.00061	0.002289
34.827	0.021362	-0.033722	-0.023041	0.005798	0.010681	0.18433	0.12253	-0.005951	0.019531	0.11856	0.011444	0.004578	-0.12085	-0.041656	0.00885	-0.003815	-0.014648	-0.043335	-0.65048	-0.23346	0.13473	-0.035706	0.064545	-0.1503	0.24231	-0.001831	-0.018921	0.001984	0.04715	-0.094452	-0.001831	-0.006409
34.828	0.019379	-0.055389	0.011444	0.006866	-0.015869	-0.20783	0.1297	-0.001526	0.025635	0.08316	0.004425	0.010071	-0.21896	-0.10101	0.018921	-0.009766	0.000305	-0.00824	0.16403	-0.23392	0.13519	-0.046997	0.005188	-0.13763	0.052795	-0.001678	-0.04425	-0.002136	0.082855	-0.10529	0.000153	-0.008087
34.829	0.013885	0.016937	0.042877	0.005951	0.007629	-0.21484	0.18753	-0.005798	0.017395	0.02121	0.011749	0.00946	-0.084839	-0.13382	0.023041	-0.015717	-0.006714	-0.025635	0.40039	0.35034	0.19424	-0.053253	-0.089722	-0.015106	-0.20889	-0.007477	0.001221	-0.008698	0.019531	-0.10681	-0.002441	-0.007019
34.83	0.021515	-0.004425	0.00473	0.005188	0.049744	-0.12497	0.20981	0.003357	0.023804	-0.003662	0.002136	0.00885	-0.095215	-0.099335	0.006409	0.011749	0.004883	-0.10635	0.5661	0.58227	0.17456	-0.075989	-0.065613	0.074463	-0.22446	-0.005188	-0.007477	-0.008698	0.029449	-0.029907	-0.000458	-0.012665
34.831	0.000305	-0.016937	0.021667	0.00824	0.036469	-0.073547	0.20615	0.004272	0.015106	0.003967	-0.007019	0.015717	0.089569	-0.15121	-0.025024	0.044556	0.034637	-0.11292	0.33356	0.62195	0.058594	-0.075836	0.059357	0.11322	-0.20966	-0.010681	-0.017242	-0.008087	0.015869	0.066071	-0.001373	-0.01236
34.832	-0.000916	0.014191	0.056305	0.01358	0.014496	-0.028992	0.18127	0.003357	0	-0.016785	-0.002747	0.017395	0.082703	-0.092163	-0.025482	0.016327	0.030518	-0.059357	0.21683	0.41855	-0.020447	-0.064545	0.14191	0.22568	-0.32089	-0.006561	0.002441	-0.011902	0.001984	0.029449	0.000763	-0.006561
34.833	-0.006256	-0.002747	0.089722	0.020752	-0.005341	-0.016174	0.19363	0.002594	-0.10834	-0.021057	-0.006409	0.017548	0.058136	0.022278	-0.0177	0.028534	0.034332	-0.01297	-0.11047	0.15411	-0.25925	-0.029907	0.41763	0.12238	-0.50613	-0.002441	-0.024567	-0.008545	0.001221	-0.039368	0.000153	-0.007324
34.834	-0.004425	-0.006104	0.11246	0.003662	-0.016327	-0.021515	0.18555	0.001373	-0.11505	0.041962	0.00061	0.030365	0.033112	0.023651	-0.035248	-0.00946	0.023041	-0.055084	-0.49911	-0.000916	-0.24933	-0.019379	0.46478	0.10803	-0.35736	-0.001831	-0.014496	-0.004425	-0.002747	0.025177	0.001831	-0.003815
34.835	0.004425	0.019379	0.084839	0.001984	-0.021667	0.036316	0.10468	0.007477	-0.040741	0.081177	-0.007019	0.016632	0.056458	-0.018311	-0.013733	-0.081635	-0.00412	-0.089264	-0.66986	0.013885	0.23453	-0.020599	0.42145	0.11475	0.087738	-0.001678	-0.005646	-0.012054	0.00473	0.038605	0.000763	-0.009766
34.836	0.0177	-0.00061	0.04715	0.015411	0.005493	0.053864	0.097656	0.009308	-0.008087	-0.044403	-0.009766	0.011902	0.042572	-0.018158	-0.000153	0.048676	0.005035	-0.049133	-0.16769	-0.087585	0.41351	-0.045319	0.30807	-0.006714	0.38773	-0.002136	-0.00946	-0.003052	-0.000916	0.029144	0.003662	-0.014648
34.837	0.014496	-0.023193	0.038605	0.006561	-0.005493	0.09903	0.15259	0.006866	0.057678	-0.063171	0.00061	-0.000763	0.005493	0.13794	0.028687	0.002136	-0.017395	-0.093994	0.71793	-0.33554	0.19211	-0.03479	0.12039	-0.07309	0.42053	0	0.002441	-0.007782	-0.014496	0.012054	-0.001526	-0.023346
34.838	-0.000305	-0.028381	0.059204	0.001373	-0.005341	0.103	0.16541	0.002747	0.097351	0.012512	0.010529	-0.010223	0.008698	0.23819	0.021515	0.002899	-0.020447	-0.15823	-0.22217	-0.38742	0.041809	-0.009613	-0.045929	0.002289	0.49972	0.001678	0.008545	-0.011139	-0.0354	0.02182	-0.001221	-0.014954
34.839	-0.000916	0.024414	0.046387	0.003815	-0.016785	0.067444	0.16068	0.007629	0.038605	0.018616	-0.011292	-0.003967	0.1947	0.065308	-0.011292	0.00351	-0.029297	-0.15015	-0.13519	-0.31097	0.019989	0.000305	-0.11383	0.082397	0.30319	-0.000458	0.003967	-0.007477	-0.033264	0.013885	-0.004425	-0.019836
34.84	0.001984	-0.024719	0.027924	0.006104	-0.002747	-0.063019	0.19592	0.007782	0.016632	-0.024414	-0.004578	-0.002594	-0.22629	-0.040436	-0.017548	-0.001678	-0.020142	-0.094757	1.0095	-0.10559	0.054016	-0.042114	0.037842	0.078278	-0.06897	-0.000458	0.000916	-0.008698	-0.024872	0.001984	-0.000916	-0.011597
34.841	0.00824	-0.043488	0.021515	0.006866	-0.028381	-0.089264	0.16342	0.007782	0.010834	-0.019226	0.009155	-0.004578	-0.40771	-0.089722	-0.056152	-0.002594	-0.000305	-0.085907	0.67688	0.17014	0.086823	-0.089569	0.000916	0.015259	-0.20828	-0.000153	0.00351	-0.006714	-0.041962	-0.004272	-0.000916	-0.006561
34.842	0.007019	-0.10162	0.039978	0.001068	-0.028076	-0.017548	0.1889	0.004425	0.008087	-0.001831	-0.005646	0.000916	0.001526	-0.016327	-0.064392	-0.010376	-0.001831	-0.12344	0.1683	0.41367	-0.041504	-0.079346	-0.08728	0.066681	-0.36957	-0.000916	0.036621	-0.00885	-0.035553	-0.0177	-0.001526	-0.00946
34.843	0.006104	-0.080261	0.014038	0.010529	0.066376	0.007172	0.18875	0.008698	0.003357	-0.005798	-0.00473	0.004272	0.35965	0.038757	-0.010223	-0.021973	0.031128	-0.069427	-0.37796	0.16846	-0.22369	-0.091248	0.084839	-0.050964	-0.41657	-0.006256	0.029755	-0.009613	-0.001526	0.022888	-0.009155	-0.0177
34.844	0.005341	-0.012665	0.013428	0.00885	0.027771	0.036316	0.19608	0.004883	0.014954	-0.041504	0.006714	0.002899	0.010376	0.089417	0.060425	-0.004272	0.05249	-0.10025	-0.22568	-0.1236	-0.26001	-0.10605	0.25085	-0.17242	-0.37109	0.001831	0.008545	-0.012817	-0.038605	0.009003	-0.003052	-0.011749
